<svg width="13" height="13" viewBox="0 0 13 13" fill="none" xmlns="http://www.w3.org/2000/svg">
<path d="M10.8753 3.4998C10.8753 3.13513 10.7305 2.78539 10.4726 2.52753C10.2147 2.26967 9.86499 2.1248 9.50032 2.1248H8.87532C8.51226 2.12459 8.16402 1.9808 7.90657 1.7248L7.46907 1.2873C7.34129 1.1588 7.18937 1.05683 7.02205 0.987242C6.85472 0.917658 6.67529 0.881836 6.49407 0.881836C6.31285 0.881836 6.13342 0.917658 5.9661 0.987242C5.79877 1.05683 5.64685 1.1588 5.51907 1.2873L5.08157 1.7248C4.82413 1.9808 4.47588 2.12459 4.11282 2.1248H3.48782C3.12315 2.1248 2.77341 2.26967 2.51555 2.52753C2.25769 2.78539 2.11282 3.13513 2.11282 3.4998V4.1248C2.11261 4.48786 1.96882 4.83611 1.71282 5.09355L1.27532 5.53105C1.14682 5.65883 1.04485 5.81075 0.975265 5.97808C0.90568 6.1454 0.869857 6.32483 0.869857 6.50605C0.869857 6.68727 0.90568 6.8667 0.975265 7.03402C1.04485 7.20135 1.14682 7.35327 1.27532 7.48105L1.71282 7.91855C1.96882 8.17599 2.11261 8.52424 2.11282 8.8873V9.5123C2.11282 9.87697 2.25769 10.2267 2.51555 10.4846C2.77341 10.7424 3.12315 10.8873 3.48782 10.8873H4.11282C4.47588 10.8875 4.82413 11.0313 5.08157 11.2873L5.51907 11.7248C5.64685 11.8533 5.79877 11.9553 5.9661 12.0249C6.13342 12.0944 6.31285 12.1303 6.49407 12.1303C6.67529 12.1303 6.85472 12.0944 7.02205 12.0249C7.18937 11.9553 7.34129 11.8533 7.46907 11.7248L7.90657 11.2873C8.16402 11.0313 8.51226 10.8875 8.87532 10.8873H9.50032C9.86499 10.8873 10.2147 10.7424 10.4726 10.4846C10.7305 10.2267 10.8753 9.87697 10.8753 9.5123V8.8873C10.8755 8.52424 11.0193 8.17599 11.2753 7.91855L11.7128 7.48105C11.8413 7.35327 11.9433 7.20135 12.0129 7.03402C12.0825 6.8667 12.1183 6.68727 12.1183 6.50605C12.1183 6.32483 12.0825 6.1454 12.0129 5.97808C11.9433 5.81075 11.8413 5.65883 11.7128 5.53105L11.2753 5.09355C11.0193 4.83611 10.8755 4.48786 10.8753 4.1248V3.4998Z" stroke="#999999" stroke-linecap="round" stroke-linejoin="round"/>
</svg>
