<svg width="45" height="40" viewBox="0 0 45 40" fill="none" xmlns="http://www.w3.org/2000/svg">
<path d="M31.659 10.7834V3.59443H12.4884V10.7834H8.89396V0H35.2534V10.7834H31.659ZM35.9908 20.3686C36.6697 20.3686 37.2389 20.1389 37.6982 19.6796C38.1574 19.2203 38.3871 18.6512 38.3871 17.9723C38.3871 17.2933 38.1574 16.7242 37.6982 16.2649C37.2389 15.8056 36.6697 15.5759 35.9908 15.5759C35.3118 15.5759 34.7427 15.8056 34.2834 16.2649C33.8241 16.7242 33.5944 17.2933 33.5944 17.9723C33.5944 18.6512 33.8241 19.2203 34.2834 19.6796C34.7427 20.1389 35.3118 20.3686 35.9908 20.3686ZM31.659 36.4056V26.1751H12.4884V36.4056H31.659ZM35.2534 40H8.89396V30.4147H0V16.7741C0 15.0767 0.57987 13.6539 1.73961 12.5057C2.89935 11.3575 4.31638 10.7834 5.99069 10.7834H38.1567C39.854 10.7834 41.2768 11.3575 42.4251 12.5057C43.5733 13.6539 44.1474 15.0767 44.1474 16.7741V30.4147H35.2534V40ZM40.553 26.8203V16.7741C40.553 16.0951 40.3234 15.526 39.8641 15.0667C39.4048 14.6074 38.8356 14.3778 38.1567 14.3778H5.99069C5.31173 14.3778 4.74261 14.6074 4.28331 15.0667C3.82402 15.526 3.59437 16.0951 3.59437 16.7741V26.8203H8.89396V22.5806H35.2534V26.8203H40.553Z" fill="white"/>
</svg>
