<svg width="710" height="1024" viewBox="0 0 710 1024" fill="none" xmlns="http://www.w3.org/2000/svg">
<path d="M185.666 -5.05695L409.552 -5.05695L297.609 188.834L185.666 -5.05695Z" fill="#EEADD5"/>
<path d="M441.25 -1.53156L665.136 -1.53156L553.193 192.36L441.25 -1.53156Z" fill="#A2D7F0"/>
<path d="M611.639 519.624L723.582 325.733L835.525 519.624L611.639 519.624Z" fill="#D73A9B" fill-opacity="0.96"/>
<path d="M74.0312 454.451L124.914 366.319L175.798 454.451L74.0312 454.451Z" fill="#D73A9B" fill-opacity="0.96"/>
<path d="M62.2803 676.545L113.164 588.413L164.047 676.545L62.2803 676.545Z" fill="#D73A9B" fill-opacity="0.96"/>
<path d="M156.288 185.354L207.171 97.2216L258.055 185.354L156.288 185.354Z" fill="#F8DCED"/>
<path d="M380.732 302.864L431.615 214.732L482.498 302.864L380.732 302.864Z" fill="#A2D7F0"/>
<path d="M319.039 205.918L369.923 117.786L420.806 205.918L319.039 205.918Z" fill="#D73A9B" fill-opacity="0.96"/>
<path d="M440.377 205.638L491.261 117.506L542.144 205.638L440.377 205.638Z" fill="#D73A9B" fill-opacity="0.96"/>
<path d="M536.432 463.676L561.874 419.609L587.316 463.676L536.432 463.676Z" fill="#A2D7F0"/>
<path d="M416.572 517.142L442.014 473.076L467.456 517.142L416.572 517.142Z" fill="#A2D7F0"/>
<path d="M504.117 517.142L529.559 473.076L555.001 517.142L504.117 517.142Z" fill="#D73A9B" fill-opacity="0.96"/>
<path d="M625.152 645.228L650.594 601.162L676.036 645.228L625.152 645.228Z" fill="#F8DCED"/>
<path d="M375.033 104.506L425.917 16.3737L476.8 104.506L375.033 104.506Z" fill="#D73A9B" fill-opacity="0.96"/>
<path d="M88.1324 487.897L312.019 487.897L200.076 681.788L88.1324 487.897Z" fill="#EEADD5"/>
<path d="M232.847 722.02L334.613 722.02L283.73 810.152L232.847 722.02Z" fill="#7BC5E9"/>
<path d="M445.539 213.79L547.306 213.79L496.423 301.923L445.539 213.79Z" fill="#D73A9B" fill-opacity="0.96"/>
<path d="M576.563 213.79L678.329 213.79L627.446 301.923L576.563 213.79Z" fill="#D73A9B" fill-opacity="0.96"/>
<path d="M690.547 213.203L792.314 213.203L741.431 301.335L690.547 213.203Z" fill="#A2D7F0"/>
<path d="M668.221 744.347L769.987 744.347L719.104 832.479L668.221 744.347Z" fill="#7BC5E9"/>
<path d="M397.36 539.88L499.127 539.88L448.244 628.012L397.36 539.88Z" fill="#F8DCED"/>
<path d="M353.294 722.02L455.061 722.02L404.177 810.152L353.294 722.02Z" fill="#D73A9B" fill-opacity="0.96"/>
<path d="M63.6323 699.693L165.399 699.693L114.516 787.825L63.6323 699.693Z" fill="#D73A9B" fill-opacity="0.96"/>
<path d="M318.041 216.14L419.808 216.14L368.925 304.273L318.041 216.14Z" fill="#D73A9B" fill-opacity="0.96"/>
<path d="M378.442 116.066L480.208 116.066L429.325 204.199L378.442 116.066Z" fill="#EEADD5"/>
<path d="M91.8347 81.5915L193.601 81.5915L142.718 169.724L91.8347 81.5915Z" fill="#7BC5E9"/>
<path d="M553.061 544.58L654.827 544.58L603.944 632.712L553.061 544.58Z" fill="#7BC5E9"/>
<path d="M357.23 477.189L408.113 477.189L382.672 521.255L357.23 477.189Z" fill="#D73A9B" fill-opacity="0.96"/>
<path d="M555.234 477.189L606.117 477.189L580.676 521.255L555.234 477.189Z" fill="#7BC5E9"/>
<path d="M579.324 420.784L630.207 420.784L604.765 464.851L579.324 420.784Z" fill="#F8DCED"/>
<path d="M613.989 369.08L664.872 369.08L639.431 413.147L613.989 369.08Z" fill="#A2D7F0"/>
<path d="M639.841 315.613L690.724 315.613L665.283 359.679L639.841 315.613Z" fill="#D73A9B" fill-opacity="0.96"/>
<path d="M691.546 533.006L742.429 533.006L716.987 577.072L691.546 533.006Z" fill="#D73A9B" fill-opacity="0.96"/>
<path d="M654.53 594.111L705.413 594.111L679.972 638.177L654.53 594.111Z" fill="#D73A9B" fill-opacity="0.96"/>
<path d="M309.639 849.695L360.522 849.695L335.08 893.761L309.639 849.695Z" fill="#D73A9B" fill-opacity="0.96"/>
<path d="M453.001 900.812L503.884 900.812L478.442 944.878L453.001 900.812Z" fill="#7BC5E9"/>
<path d="M418.923 847.345L469.806 847.345L444.364 891.411L418.923 847.345Z" fill="#7BC5E9"/>
<path d="M482.378 847.345L533.261 847.345L507.82 891.411L482.378 847.345Z" fill="#D73A9B" fill-opacity="0.96"/>
<path d="M371.919 313.982L595.805 313.982L483.862 507.873L371.919 313.982Z" fill="#EEADD5"/>
<path d="M723.273 -5.05695L947.16 -5.05695L835.216 188.834L723.273 -5.05695Z" fill="#D73A9B" fill-opacity="0.96"/>
<path d="M464.752 654.761L688.638 654.761L576.695 848.652L464.752 654.761Z" fill="#EEADD5"/>
<path d="M581.674 856.29L805.56 856.29L693.617 1050.18L581.674 856.29Z" fill="#D73A9B" fill-opacity="0.96"/>
<path d="M64.6304 210.573L288.517 210.573L176.574 404.465L64.6304 210.573Z" fill="#D73A9B" fill-opacity="0.96"/>
<path d="M81.0818 933.847L304.968 933.847L193.025 1127.74L81.0818 933.847Z" fill="#F8DCED"/>
<path d="M230.319 698.239L342.263 504.348L454.206 698.239L230.319 698.239Z" fill="#D73A9B" fill-opacity="0.96"/>
<path d="M75.2063 910.345L187.149 716.454L299.093 910.345L75.2063 910.345Z" fill="#A2D7F0"/>
<path d="M188.603 454.994L300.547 261.103L412.49 454.994L188.603 454.994Z" fill="#F8DCED"/>
<path d="M281.436 1036.08L393.379 842.189L505.322 1036.08L281.436 1036.08Z" fill="#D73A9B" fill-opacity="0.96"/>
<path d="M475.915 627.191L526.798 539.059L577.682 627.191L475.915 627.191Z" fill="#D73A9B" fill-opacity="0.96"/>
<path d="M606.351 838.709L657.234 750.576L708.117 838.709L606.351 838.709Z" fill="#D73A9B" fill-opacity="0.96"/>
<path d="M294.362 831.658L345.245 743.525L396.129 831.658L294.362 831.658Z" fill="#F8DCED"/>
<path d="M420.685 831.658L471.569 743.525L522.452 831.658L420.685 831.658Z" fill="#A2D7F0"/>
<path d="M489.429 955.631L540.312 867.499L591.195 955.631L489.429 955.631Z" fill="#D73A9B" fill-opacity="0.96"/>
<path d="M581.674 190.009L693.617 -3.88206L805.56 190.009L581.674 190.009Z" fill="#7BC5E9"/>
<path d="M491.956 969.966L593.722 969.966L542.839 1058.1L491.956 969.966Z" fill="#A2D7F0"/>
<path d="M578.148 1021.85L603.59 977.781L629.032 1021.85L578.148 1021.85Z" fill="#D73A9B" fill-opacity="0.96"/>
<path d="M451.238 895.524L476.68 851.458L502.121 895.524L451.238 895.524Z" fill="#D73A9B" fill-opacity="0.96"/>
<path d="M707.997 673.02L758.88 584.887L809.763 673.02L707.997 673.02Z" fill="#D73A9B" fill-opacity="0.96"/>
<path d="M659.818 587.06L685.259 542.994L710.701 587.06L659.818 587.06Z" fill="#A2D7F0"/>
<path d="M570.51 409.621L595.952 365.555L621.394 409.621L570.51 409.621Z" fill="#D73A9B" fill-opacity="0.96"/>
<path d="M599.888 359.092L625.329 315.026L650.771 359.092L599.888 359.092Z" fill="#7BC5E9"/>
<path d="M534.67 290.936L560.112 246.87L585.553 290.936L534.67 290.936Z" fill="#D73A9B" fill-opacity="0.96"/>
<path d="M106.346 67.6675L131.788 23.6013L157.23 67.6675L106.346 67.6675Z" fill="#D73A9B" fill-opacity="0.96"/>
<path d="M84.6071 194.578L110.049 150.512L135.49 194.578L84.6071 194.578Z" fill="#D73A9B" fill-opacity="0.96"/>
<path d="M659.818 289.761L685.259 245.695L710.701 289.761L659.818 289.761Z" fill="#D73A9B" fill-opacity="0.96"/>
<path d="M680.97 728.072L706.411 684.006L731.853 728.072L680.97 728.072Z" fill="#D73A9B" fill-opacity="0.96"/>
<path d="M738.55 1047.83L850.493 853.94L962.436 1047.83L738.55 1047.83Z" fill="#A2D7F0"/>
</svg>
