<svg width="10" height="13" viewBox="0 0 10 13" fill="none" xmlns="http://www.w3.org/2000/svg">
<path d="M5 0C2.25 0 0 2.25 0 5C0 7.87295 3.17019 11.0629 4.22902 12.064C4.44955 12.2726 4.6965 12.5 5 12.5C5.3035 12.5 5.55045 12.2726 5.77098 12.064C6.82981 11.0629 10 7.87295 10 5C10 2.25 7.75 0 5 0ZM7.98187 7.36918C6.67002 9.69086 3.31546 9.7023 2.00768 7.37833C1.55516 6.5742 1.25 5.75189 1.25 5C1.25 2.9375 2.9375 1.25 5 1.25C7.0625 1.25 8.75 2.9375 8.75 5C8.75 5.73538 8.44013 6.55816 7.98187 7.36918ZM5 2.5C3.625 2.5 2.5 3.625 2.5 5C2.5 6.375 3.625 7.5 5 7.5C6.375 7.5 7.5 6.375 7.5 5C7.5 3.625 6.375 2.5 5 2.5ZM5 6.25C4.3125 6.25 3.75 5.6875 3.75 5C3.75 4.3125 4.3125 3.75 5 3.75C5.6875 3.75 6.25 4.3125 6.25 5C6.25 5.6875 5.6875 6.25 5 6.25Z" fill="#999999"/>
</svg>
