<svg width="30" height="30" viewBox="0 0 30 30" fill="none" xmlns="http://www.w3.org/2000/svg">
<path d="M2.5 29.125C1.80556 29.125 1.215 28.8817 0.728337 28.395C0.24167 27.9083 -0.00110731 27.3183 3.79651e-06 26.625V23.4583L6.66667 17.5417V29.125H2.5ZM8.33334 29.125V22.4583H21.6667V29.125H8.33334ZM23.3333 29.125V15.4583L16.2083 9.125L21.25 4.66667L29.1667 11.7083C29.4444 11.9583 29.6528 12.2433 29.7917 12.5633C29.9306 12.8833 30 13.2233 30 13.5833V26.625C30 27.3194 29.7567 27.91 29.27 28.3967C28.7833 28.8833 28.1933 29.1261 27.5 29.125H23.3333ZM3.79651e-06 21.2083V13.5833C3.79651e-06 13.2222 0.0694482 12.875 0.208337 12.5417C0.347226 12.2083 0.555559 11.9306 0.833337 11.7083L13.3333 0.625C13.5556 0.402778 13.8128 0.243333 14.105 0.146666C14.3972 0.0499997 14.6956 0.00111111 15 0C15.3056 0 15.6039 0.0488886 15.895 0.146666C16.1861 0.244444 16.4433 0.403889 16.6667 0.625L20 3.58333L3.79651e-06 21.2083Z" fill="#A8A8A8"/>
</svg>
