<svg width="54" height="36" viewBox="0 0 54 36" fill="none" xmlns="http://www.w3.org/2000/svg">
<path d="M27.0056 27.9422C29.8383 27.9422 32.2443 26.9507 34.2234 24.9678C36.2026 22.9849 37.1922 20.577 37.1922 17.7442C37.1922 14.9115 36.2007 12.5056 34.2178 10.5264C32.2349 8.54727 29.827 7.55769 26.9943 7.55769C24.1615 7.55769 21.7556 8.54915 19.7764 10.5321C17.7973 12.515 16.8077 14.9229 16.8077 17.7556C16.8077 20.5883 17.7992 22.9943 19.7821 24.9734C21.765 26.9526 24.1729 27.9422 27.0056 27.9422ZM26.9999 24.4999C25.1249 24.4999 23.5312 23.8437 22.2187 22.5312C20.9062 21.2187 20.2499 19.6249 20.2499 17.7499C20.2499 15.8749 20.9062 14.2812 22.2187 12.9687C23.5312 11.6562 25.1249 10.9999 26.9999 10.9999C28.8749 10.9999 30.4687 11.6562 31.7812 12.9687C33.0937 14.2812 33.7499 15.8749 33.7499 17.7499C33.7499 19.6249 33.0937 21.2187 31.7812 22.5312C30.4687 23.8437 28.8749 24.4999 26.9999 24.4999ZM27.0034 35.2499C21.2543 35.2499 16.016 33.6641 11.2884 30.4927C6.5609 27.3212 3.08015 23.0736 0.846191 17.7499C3.08015 12.4262 6.55978 8.17865 11.2851 5.00719C16.0103 1.83573 21.2475 0.25 26.9965 0.25C32.7455 0.25 37.9839 1.83573 42.7114 5.00719C47.439 8.17865 50.9197 12.4262 53.1537 17.7499C50.9197 23.0736 47.4401 27.3212 42.7148 30.4927C37.9896 33.6641 32.7524 35.2499 27.0034 35.2499ZM26.9999 31.4999C31.7083 31.4999 36.0312 30.2604 39.9687 27.7812C43.9062 25.302 46.9166 21.9583 49 17.7499C46.9166 13.5416 43.9062 10.1979 39.9687 7.71869C36.0312 5.23952 31.7083 3.99994 26.9999 3.99994C22.2916 3.99994 17.9687 5.23952 14.0312 7.71869C10.0937 10.1979 7.08327 13.5416 4.99994 17.7499C7.08327 21.9583 10.0937 25.302 14.0312 27.7812C17.9687 30.2604 22.2916 31.4999 26.9999 31.4999Z" fill="white"/>
</svg>
